<svg width="64" height="32" viewBox="0 0 64 32" fill="none" xmlns="http://www.w3.org/2000/svg">
    <path d="M1.932 11H0.936V2.996H4.152C5.76 2.996 6.66 4.1 6.66 5.408C6.66 6.716 5.748 7.82 4.152 7.82H1.932V11ZM4.032 6.932C4.98 6.932 5.628 6.308 5.628 5.408C5.628 4.508 4.98 3.884 4.032 3.884H1.932V6.932H4.032ZM10.3226 11.144C8.55863 11.144 7.45463 9.776 7.45463 8.096C7.45463 6.416 8.55863 5.06 10.3226 5.06C12.0866 5.06 13.1906 6.416 13.1906 8.096C13.1906 9.776 12.0866 11.144 10.3226 11.144ZM10.3226 10.34C11.5586 10.34 12.2426 9.284 12.2426 8.096C12.2426 6.92 11.5586 5.864 10.3226 5.864C9.08663 5.864 8.40263 6.92 8.40263 8.096C8.40263 9.284 9.08663 10.34 10.3226 10.34ZM20.5858 11H19.6738L18.1618 6.344L16.6498 11H15.7498L13.9018 5.204H14.8378L16.2538 9.824L17.7778 5.204H18.5578L20.0698 9.824L21.4858 5.204H22.4338L20.5858 11ZM26.0983 11.144C24.3703 11.144 23.1343 9.908 23.1343 8.096C23.1343 6.416 24.3343 5.06 25.9903 5.06C27.7423 5.06 28.7743 6.428 28.7743 8.168V8.396H24.0943C24.1663 9.488 24.9223 10.4 26.1703 10.4C26.8423 10.4 27.5023 10.136 27.9703 9.656L28.4023 10.244C27.8143 10.82 27.0343 11.144 26.0983 11.144ZM27.8863 7.724C27.8743 6.872 27.2983 5.804 25.9783 5.804C24.7423 5.804 24.1303 6.848 24.0823 7.724H27.8863ZM31.132 11H30.232V5.204H31.132V6.128C31.6 5.528 32.272 5.072 33.064 5.072V5.996C32.956 5.984 32.848 5.972 32.716 5.972C32.152 5.972 31.396 6.428 31.132 6.896V11ZM36.821 11.144C35.093 11.144 33.857 9.908 33.857 8.096C33.857 6.416 35.057 5.06 36.713 5.06C38.465 5.06 39.497 6.428 39.497 8.168V8.396H34.817C34.889 9.488 35.645 10.4 36.893 10.4C37.565 10.4 38.225 10.136 38.693 9.656L39.125 10.244C38.537 10.82 37.757 11.144 36.821 11.144ZM38.609 7.724C38.597 6.872 38.021 5.804 36.701 5.804C35.465 5.804 34.853 6.848 34.805 7.724H38.609ZM46.0547 11H45.1547V10.136C44.7227 10.724 44.0147 11.144 43.1987 11.144C41.6867 11.144 40.6187 9.992 40.6187 8.108C40.6187 6.248 41.6867 5.06 43.1987 5.06C43.9787 5.06 44.6867 5.444 45.1547 6.08V2.996H46.0547V11ZM43.4267 10.34C44.1347 10.34 44.8427 9.92 45.1547 9.416V6.8C44.8427 6.296 44.1347 5.864 43.4267 5.864C42.2507 5.864 41.5547 6.824 41.5547 8.108C41.5547 9.392 42.2507 10.34 43.4267 10.34ZM54.6465 11H50.9985V2.996H54.5625C55.9545 2.996 56.8065 3.836 56.8065 5.036C56.8065 6.044 56.1345 6.716 55.4025 6.872C56.2545 7.004 56.9625 7.88 56.9625 8.84C56.9625 10.124 56.1105 11 54.6465 11ZM54.3945 6.464C55.2945 6.464 55.7745 5.912 55.7745 5.18C55.7745 4.46 55.2945 3.884 54.3945 3.884H51.9945V6.464H54.3945ZM54.4545 10.112C55.3785 10.112 55.9305 9.584 55.9305 8.732C55.9305 8 55.4265 7.352 54.4545 7.352H51.9945V10.112H54.4545ZM58.1974 13.268L58.3294 12.452C58.4614 12.512 58.6774 12.548 58.8214 12.548C59.2174 12.548 59.4814 12.416 59.6854 11.936L60.0694 11.06L57.6454 5.204H58.6294L60.5494 9.956L62.4814 5.204H63.4534L60.5494 12.176C60.2014 13.016 59.6134 13.34 58.8454 13.352C58.6534 13.352 58.3534 13.316 58.1974 13.268Z" fill="#5A6089"/>
    <path d="M14.4906 20H8.8797C7.78895 20 6.81613 20.648 6.42307 21.6442L4.83118 25.6H6.24619C8.14271 25.6 9.80339 24.362 10.3144 22.5727L10.5993 21.5862C10.6485 21.4218 10.7959 21.3057 10.9727 21.3057H12.3878C12.5646 21.3057 12.712 21.4218 12.7612 21.5862L13.9109 25.6H18.5195L16.9374 21.6442C16.5542 20.6577 15.5715 20 14.4906 20Z" fill="black"/>
    <path d="M9.65656 31.2002H4.04159C2.95007 31.2002 1.97655 30.5521 1.5832 29.5559L0 25.6002H4.61194L5.76247 29.614C5.81164 29.7784 5.95914 29.8945 6.13614 29.8945H7.55218C7.72918 29.8945 7.87668 29.7784 7.92585 29.614L8.27003 28.405C8.74204 26.7511 10.2859 25.6002 12.0461 25.6002H13.6883L12.1051 29.5559C11.7216 30.5521 10.7382 31.2002 9.65656 31.2002Z" fill="black"/>
    <path d="M29.7095 32H34.4822L33.7088 30.1516C34.7874 29.079 35.4285 27.6233 35.4285 25.9952C35.4285 22.6624 32.6911 20 28.987 20C25.2625 20 22.5454 22.6816 22.5454 25.9952C22.5454 29.3663 25.2625 31.9904 28.987 31.9904M25.1912 25.9856C25.1912 23.9362 26.7686 22.2506 28.987 22.2506C31.2054 22.2506 32.7827 23.9362 32.7827 25.9856C32.7827 28.0543 31.2054 29.7207 28.987 29.7207C26.7584 29.7207 25.1912 28.0543 25.1912 25.9856Z" fill="black"/>
    <path d="M37.8442 32V20H40.2598V31.99H37.8442V32Z" fill="black"/>
    <path d="M45.9111 27.9005V32H43.4805V20H47.1687C49.787 20 51.5325 21.3632 51.5325 23.9502C51.5325 26.5274 49.787 27.9005 47.1687 27.9005H45.9111ZM45.9111 22.1493V25.7313H47.3001C48.3605 25.7313 49.0831 25.1443 49.0831 23.9502C49.0831 22.7463 48.323 22.1493 47.2344 22.1493H45.9111Z" fill="black"/>
    <path d="M58.7921 22.151V32H56.3413V22.151H53.1428V20H62V22.151H58.7921Z" fill="black"/>
</svg>
